<?xml version="1.0" encoding="utf-8"?>
<!-- Generator: Adobe Illustrator 19.0.0, SVG Export Plug-In . SVG Version: 6.00 Build 0)  -->
<svg version="1.1" id="Layer_1" xmlns="http://www.w3.org/2000/svg" xmlns:xlink="http://www.w3.org/1999/xlink" x="0px" y="0px"
	 viewBox="0 0 96 96" style="enable-background:new 0 0 96 96;" xml:space="preserve">
<style type="text/css">
	.st0{fill:#333333;}
</style>
<g id="XMLID_2_">
	<path id="XMLID_8_" class="st0" d="M65.2,24.8c0-0.3,0.1-0.5,0.2-0.6s0.4-0.2,0.6-0.2h7.7c0.5,0,0.9,0.2,1.2,0.5
		c0.3,0.3,0.5,0.7,0.5,1.2v7.7c0,0.3-0.1,0.5-0.2,0.6s-0.4,0.2-0.6,0.2h-1.7c-0.3,0-0.5-0.1-0.6-0.2s-0.2-0.4-0.2-0.6v-3.6l-6.8,6.8
		c1.4,1.7,2.3,3.6,2.9,5.7c0.6,2.1,0.6,4.3,0.3,6.6c-0.6,3.2-2,6-4.4,8.3s-5.2,3.7-8.4,4.2c-4,0.6-7.7-0.2-11-2.4
		c-2.1,1.4-4.4,2.2-6.9,2.5v3.5h2.6c0.3,0,0.5,0.1,0.6,0.2s0.2,0.4,0.2,0.6v1.7c0,0.3-0.1,0.5-0.2,0.6s-0.4,0.2-0.6,0.2h-2.6v2.6
		c0,0.3-0.1,0.5-0.2,0.6c-0.2,0.2-0.4,0.2-0.6,0.2h-1.7c-0.3,0-0.5-0.1-0.6-0.2s-0.2-0.4-0.2-0.6v-2.6h-2.6c-0.3,0-0.5-0.1-0.6-0.2
		s-0.2-0.4-0.2-0.6V66c0-0.3,0.1-0.5,0.2-0.6s0.4-0.2,0.6-0.2h2.6v-3.5c-2.8-0.3-5.3-1.3-7.5-2.9c-2.2-1.7-3.9-3.8-5-6.4
		s-1.5-5.3-1.1-8.2c0.4-3.3,1.9-6.2,4.3-8.7s5.3-3.9,8.6-4.4c4-0.6,7.7,0.2,11,2.4c2.6-1.7,5.5-2.6,8.6-2.6c3.6,0,6.8,1.1,9.6,3.4
		l6.8-6.8H66c-0.3,0-0.5-0.1-0.6-0.2c-0.2-0.2-0.2-0.4-0.2-0.6V24.8z M44.6,54.7c2.3-2.3,3.4-5.1,3.4-8.4s-1.1-6.1-3.4-8.4
		c-2.3,2.3-3.4,5.1-3.4,8.4S42.3,52.3,44.6,54.7z M23.9,46.3c0,3.3,1.2,6.1,3.5,8.5c2.4,2.4,5.2,3.5,8.5,3.5c2.1,0,4-0.5,5.9-1.5
		c-2.8-3-4.1-6.5-4.1-10.5s1.4-7.5,4.1-10.5c-1.8-1-3.8-1.5-5.9-1.5c-3.3,0-6.1,1.2-8.5,3.5S23.9,43,23.9,46.3z M53.2,58.3
		c3.3,0,6.1-1.2,8.5-3.5c2.4-2.4,3.5-5.2,3.5-8.5s-1.2-6.1-3.5-8.5c-2.4-2.4-5.2-3.5-8.5-3.5c-2.1,0-4,0.5-5.9,1.5
		c2.8,3,4.1,6.5,4.1,10.5s-1.4,7.5-4.1,10.5C49.1,57.8,51.1,58.3,53.2,58.3z"/>
</g>
</svg>
